<svg xmlns="http://www.w3.org/2000/svg" width="32" height="32" viewBox="0 0 32 32"><path fill="#fff" d="M14.505 5.873Q8.6 9.654 8.6 14.98q0 1.657.577 1.657l.396-.107q.467-.18.756-.18q1.692 0 2.825 1.23t1.134 3.036q-.001 1.736-1.225 2.947q-1.224 1.21-2.952 1.21q-2.412 0-3.98-1.983q-1.564-1.98-1.564-4.977q-.001-3.39 1.33-6.203q1.334-2.812 4.068-5.085q2.736-2.271 3.492-2.272q.504 0 .828.486q.324.485.324.845l-.107.288zm12.96 0q-5.905 3.78-5.904 9.108q0 1.657.577 1.657l.396-.107q.467-.18.756-.18q1.656 0 2.807 1.23q1.153 1.228 1.152 3.036q-.001 1.736-1.225 2.947q-1.224 1.21-2.952 1.21q-2.412 0-3.98-1.983q-1.564-1.98-1.564-4.977q-.002-3.426 1.35-6.256q1.35-2.831 4.067-5.067q2.722-2.237 3.475-2.237q.505 0 .83.486q.323.486.323.846z"/></svg>